/* XPM */
static const char * pretrigicon_xpm[] = {
/* columns rows colors chars-per-pixel */
"32 32 68 1",
"  c #282828",
". c #2B2B2B",
"X c #2C2C2C",
"o c #2D2D2D",
"O c #2F2F2F",
"+ c #333333",
"@ c #353535",
"# c #393939",
"$ c #414141",
"% c #434343",
"& c #444444",
"* c #4A4A4A",
"= c #4B4B4B",
"- c #505050",
"; c #535353",
": c #555555",
"> c #606060",
", c #626262",
"< c #636363",
"1 c #676767",
"2 c #696969",
"3 c #727272",
"4 c #767676",
"5 c #797979",
"6 c #7B7B7B",
"7 c #7C7C7C",
"8 c #808080",
"9 c #818181",
"0 c #828282",
"q c #838383",
"w c #868686",
"e c #898989",
"r c #8A8A8A",
"t c #8B8B8B",
"y c #8F8F8F",
"u c #909090",
"i c #919191",
"p c #929292",
"a c #959595",
"s c #979797",
"d c #989898",
"f c #999999",
"g c #9C9C9C",
"h c #A3A3A3",
"j c #A5A5A5",
"k c #A6A6A6",
"l c #A7A7A7",
"z c #A8A8A8",
"x c #ACACAC",
"c c #ADADAD",
"v c #AEAEAE",
"b c #AFAFAF",
"n c #B0B0B0",
"m c #B9B9B9",
"M c #BBBBBB",
"N c #C1C1C1",
"B c #C3C3C3",
"V c #C4C4C4",
"C c #C7C7C7",
"Z c #CCCCCC",
"A c #CDCDCD",
"S c #CFCFCF",
"D c #D1D1D1",
"F c #D5D5D5",
"G c #E6E6E6",
"H c #EAEAEA",
"J c #FFFFFF",
"K c None",
/* pixels */
"KKKKKKKKKKKKKKKKKKKKKKKKKKKKKKKK",
"KKKKKKKKKKKKKKKKKKKKKKKKKKKKKKKK",
"KKKKKKKKKKKKKKKKKKKKKKKKKKKKKKKK",
"KKKKKKKKKKKKJJJJJJJJKKKKKKKKKKKK",
"KKKKKKKKKJJJJKKKKKKJJJJKKKKKKKKK",
"KKKKKKKKJJKKKKKKKKKKKKJJKKKKKKKK",
"KKKKKKKJJKKKKKKKKKKKKKKJJKKKKKKK",
"KKKKKKJJKKKKKKKKKKKKKKKKJJKKKKKK",
"KKKKKJJKKKKHHSKKKKKKKKKKKJJKKKKK",
"KKKKJJKKKBSHDZzKKKKKKKKKKKJJKKKK",
"KKKKJKKKmBBcp:=aKKKKKKKKKKKJKKKK",
"KKKKJKKBVBpr,=$=aKKKKKKKKKKJKKKK",
"KKKJJKKGMtq7<$+$4KKKKKKKKKKJJKKK",
"KKKJKKKFcqqq,++;2KKKKKKKKKKKJKKK",
"KKKJKKKmjtqq$o=;KKKKKKKKKKKKJKKK",
"KKKJKKKcjjr=ooo,KKKKKKKKKKKKJKKK",
"KKKJKKKfcch$..oqKKKKKKKKKKKKJKKK",
"KKKJKKKfcmh=. ogKKJKKJJKJJKKJKKK",
"KKKJKKK5jzzp. .jKKJKKJJKJJKKJKKK",
"KKKJJKKK5fzjj@#pKKKKKKKKKKKJJKKK",
"KKKKJKKK:pzccj44KKKKKKKKKKKJKKKK",
"KKKKJKKKK4fSBj3<KKKKKKKKKKKJKKKK",
"KKKKJJKKKKqVBj5KKKKKKKKKKKJJKKKK",
"KKKKKJJKKKKqaq5KKKKKKKKKKJJKKKKK",
"KKKKKKJJKKKKq7KKKKKKKKKKJJKKKKKK",
"KKKKKKKJJKKKKKKKKKKKKKKJJKKKKKKK",
"KKKKKKKKJJKKKKKKKKKKKKJJKKKKKKKK",
"KKKKKKKKKJJJJKKKKKKJJJJKKKKKKKKK",
"KKKKKKKKKKKKJJJJJJJJKKKKKKKKKKKK",
"KKKKKKKKKKKKKKKKKKKKKKKKKKKKKKKK",
"KKKKKKKKKKKKKKKKKKKKKKKKKKKKKKKK",
"KKKKKKKKKKKKKKKKKKKKKKKKKKKKKKKK"
};
