/* XPM */
static const char * thinkicon_xpm[] = {
/* columns rows colors chars-per-pixel */
"32 32 78 1",
"  c #2B2B2B",
". c #2C2C2C",
"X c #3A3A3A",
"o c #3B3B3B",
"O c #3F3F3F",
"+ c #424242",
"@ c #444444",
"# c #454545",
"$ c #474747",
"% c #4A4A4A",
"& c #4B4B4B",
"* c #4C4C4C",
"= c #555555",
"- c #606060",
"; c #676767",
": c #727272",
"> c #767676",
", c #787878",
"< c #797979",
"1 c #7B7B7B",
"2 c #7C7C7C",
"3 c #7D7D7D",
"4 c #808080",
"5 c #818181",
"6 c #828282",
"7 c #838383",
"8 c #868686",
"9 c #898989",
"0 c #8B8B8B",
"q c #8C8C8C",
"w c #8F8F8F",
"e c #919191",
"r c #939393",
"t c #959595",
"y c #979797",
"u c #989898",
"i c #999999",
"p c #9A9A9A",
"a c #9E9E9E",
"s c #A2A2A2",
"d c #A3A3A3",
"f c #A4A4A4",
"g c #A5A5A5",
"h c #A7A7A7",
"j c #A8A8A8",
"k c #AAAAAA",
"l c #ACACAC",
"z c #ADADAD",
"x c #AFAFAF",
"c c #B1B1B1",
"v c #B5B5B5",
"b c #B6B6B6",
"n c #B7B7B7",
"m c #B8B8B8",
"M c #B9B9B9",
"N c #BBBBBB",
"B c #BCBCBC",
"V c #C1C1C1",
"C c #C3C3C3",
"Z c #C7C7C7",
"A c #CCCCCC",
"S c #D1D1D1",
"D c #D5D5D5",
"F c #D7D7D7",
"G c #DCDCDC",
"H c #DEDEDE",
"J c #DFDFDF",
"K c #E0E0E0",
"L c #E2E2E2",
"P c #E6E6E6",
"I c #EAEAEA",
"U c #F1F1F1",
"Y c #F3F3F3",
"T c #F6F6F6",
"R c #F8F8F8",
"E c #F9F9F9",
"W c #FFFFFF",
"Q c None",
/* pixels */
"QQQQQQQQQQQQQQQQQQQQQQQQQQQQQQQQ",
"QQQQQQQQQQQQQQQQQQQQQQQQQQQQQQQQ",
"QQQQQQQQQQQQQQQQQQQQQQQQQQQQQQQQ",
"QQQQQQQQQQQQWWWWWWWWQQQQQQQQQQQQ",
"QQQQQQQQQWWWWQQQQQQWWWWQQQQQQQQQ",
"QQQQQQQQWWQQQQQQQQQQQQWWQQQQQQQQ",
"QQQQQQQDUQQQQQQQQQQQQQQUGQQQQQQQ",
"QQQQQQGnnQQQQQQQQQQQQQQnMLQQQQQQ",
"QQQQQWEMnnMIIAQQQQQQQQnnnEWQQQQQ",
"QQQQWWQQnnMFDCkQQQQQQnnnQQWWQQQQ",
"QQQQWQQQMBnns-%tQQQQnnnQQQQWQQQQ",
"QQQQWQQCCCsnn9+%tQQnnnQQQQQWQQQQ",
"QQQWWQQPBq7enn9%>QnnnQQQQQQWWQQQ",
"QQQWQQQDz737<zna3MnnQQQQQQQQWQQQ",
"QQQWQQQMfe77##knnnnQQQQQQQQQWQQQ",
"QQQWQQQzff9%..*nnnQQQQQQQQQQWQQQ",
"QQQWQQQizzf# ofnnnnQQQQQQQQQWQQQ",
"QQQWQQQizMs%osMcQnnnQQQQQQQQWQQQ",
"QQQWQQQ<kfftfMtkQQnnnQQQQQQQWQQQ",
"QQQWWQQQ3iknni+eQQQQnnnQQQQWWQQQ",
"QQQQWQQQ=tnnnf::QQQQQnnnQQQWQQQQ",
"QQQQWQQQQznBCf:;QQQQQQnnnQQWQQQQ",
"QQQQWWQQnnzCCf<QQQQQQQQnnMTWQQQQ",
"QQQQQWUnnnQ8t7<QQQQQQQQQnnGQQQQQ",
"QQQQQQGMMQQQ83QQQQQQQQQQTLQQQQQQ",
"QQQQQQQLEQQQQQQQQQQQQQQWWQQQQQQQ",
"QQQQQQQQWWQQQQQQQQQQQQWWQQQQQQQQ",
"QQQQQQQQQWWWWQQQQQQWWWWQQQQQQQQQ",
"QQQQQQQQQQQQWWWWWWWWQQQQQQQQQQQQ",
"QQQQQQQQQQQQQQQQQQQQQQQQQQQQQQQQ",
"QQQQQQQQQQQQQQQQQQQQQQQQQQQQQQQQ",
"QQQQQQQQQQQQQQQQQQQQQQQQQQQQQQQQ"
};
