/* XPM */
static const char * unknownicon_xpm[] = {
/* columns rows colors chars-per-pixel */
"32 32 69 1",
"  c #282828",
". c #2B2B2B",
"X c #2C2C2C",
"o c #2D2D2D",
"O c #2F2F2F",
"+ c #333333",
"@ c #353535",
"# c #393939",
"$ c #414141",
"% c #434343",
"& c #444444",
"* c #4A4A4A",
"= c #4B4B4B",
"- c #505050",
"; c #535353",
": c #555555",
"> c #606060",
", c #626262",
"< c #636363",
"1 c #676767",
"2 c #696969",
"3 c #727272",
"4 c #767676",
"5 c #797979",
"6 c #7B7B7B",
"7 c #7C7C7C",
"8 c #B80000",
"9 c #808080",
"0 c #818181",
"q c #828282",
"w c #838383",
"e c #868686",
"r c #898989",
"t c #8A8A8A",
"y c #8B8B8B",
"u c #8F8F8F",
"i c #909090",
"p c #919191",
"a c #929292",
"s c #959595",
"d c #979797",
"f c #989898",
"g c #999999",
"h c #9C9C9C",
"j c #A3A3A3",
"k c #A5A5A5",
"l c #A6A6A6",
"z c #A7A7A7",
"x c #A8A8A8",
"c c #ACACAC",
"v c #ADADAD",
"b c #AEAEAE",
"n c #AFAFAF",
"m c #B0B0B0",
"M c #B9B9B9",
"N c #BBBBBB",
"B c #C1C1C1",
"V c #C3C3C3",
"C c #C4C4C4",
"Z c #C7C7C7",
"A c #CCCCCC",
"S c #CDCDCD",
"D c #CFCFCF",
"F c #D1D1D1",
"G c #D5D5D5",
"H c #E6E6E6",
"J c #EAEAEA",
"K c #FFFFFF",
"L c None",
/* pixels */
"LLLLLLLLLLLLLLLLLLLLLLLLLLLLLLLL",
"LLLLLLLLLLLLLLLLLLLLLLLLLLLLLLLL",
"LLLLLLLLLLLLLLLLLLLLLLLLLLLLLLLL",
"LLLLLLLLLLLL88888888LLLLLLLLLLLL",
"LLLLLLLLL8888LLLLLL8888LLLLLLLLL",
"LLLLLLLL88LLLLLLLLLLLL88LLLLLLLL",
"LLLLLLL88LLLLLLLLLLLLLL88LLLLLLL",
"LLLLLL88LLLLLLLLLLLLLLLL88LLLLLL",
"LLLLL88LLLLJJDLLLLLLLLLLL88LLLLL",
"LLLL88LLLVDJFAxLLLLLLLLLLL88LLLL",
"LLLL8LLLMVVva:=sLLLLLLLLLLL8LLLL",
"LLLL8LLVCVat,=$=sLLLLLLLLLL8LLLL",
"LLL88LLHNyw7<$+$4LLLKKKLLLL88LLL",
"LLL8LLLGvwww,++;2LLKLLKKLLLL8LLL",
"LLL8LLLMkyww$o=;LLLLLLKKLLLL8LLL",
"LLL8LLLvkkt=ooo,LLLLLKKLLLLL8LLL",
"LLL8LLLgvvj$...wLLLLKKLLLLLL8LLL",
"LLL8LLLgvMj=..ohLLLLLLLLLLLL8LLL",
"LLL8LLL7kxxa. .kLLLLKKLLLLLL8LLL",
"LLL88LLL7gxkk+#aLLLLLLLLLLL88LLL",
"LLLL8LLL:akvvk33LLLLLLLLLLL8LLLL",
"LLLL8LLLL4gDVk32LLLLLLLLLLL8LLLL",
"LLLL88LLLLwCVk6LLLLLLLLLLL88LLLL",
"LLLLL88LLLLwsw6LLLLLLLLLL88LLLLL",
"LLLLLL88LLLLw7LLLLLLLLLL88LLLLLL",
"LLLLLLL88LLLLLLLLLLLLLL88LLLLLLL",
"LLLLLLLL88LLLLLLLLLLLL88LLLLLLLL",
"LLLLLLLLL8888LLLLLL8888LLLLLLLLL",
"LLLLLLLLLLLL88888888LLLLLLLLLLLL",
"LLLLLLLLLLLLLLLLLLLLLLLLLLLLLLLL",
"LLLLLLLLLLLLLLLLLLLLLLLLLLLLLLLL",
"LLLLLLLLLLLLLLLLLLLLLLLLLLLLLLLL"
};
